<svg width="10" height="17" viewBox="0 0 10 17" fill="none" xmlns="http://www.w3.org/2000/svg">
<path d="M3.0058 9.41763C2.94316 9.41763 1.56497 9.41763 0.938515 9.41763C0.604408 9.41763 0.5 9.29234 0.5 8.97912C0.5 8.14385 0.5 7.2877 0.5 6.45244C0.5 6.11833 0.62529 6.01392 0.938515 6.01392H3.0058C3.0058 5.95128 3.0058 4.74014 3.0058 4.17633C3.0058 3.34107 3.15197 2.54756 3.56961 1.81671C4.00812 1.06497 4.63457 0.563805 5.42807 0.271462C5.95012 0.0835265 6.47216 0 7.03596 0H9.08237C9.37471 0 9.5 0.12529 9.5 0.417633V2.79814C9.5 3.09049 9.37471 3.21578 9.08237 3.21578C8.51856 3.21578 7.95476 3.21578 7.39095 3.23666C6.82715 3.23666 6.5348 3.50812 6.5348 4.09281C6.51392 4.71926 6.5348 5.32483 6.5348 5.97216H8.95708C9.29118 5.97216 9.41647 6.09745 9.41647 6.43156V8.95824C9.41647 9.29234 9.31207 9.39675 8.95708 9.39675C8.20534 9.39675 6.59745 9.39675 6.5348 9.39675V16.2042C6.5348 16.5592 6.43039 16.6845 6.05452 16.6845C5.17749 16.6845 4.32135 16.6845 3.44432 16.6845C3.13109 16.6845 3.0058 16.5592 3.0058 16.2459C3.0058 14.0534 3.0058 9.48028 3.0058 9.41763Z" fill="#73BDFA"/>
</svg>
