<svg width="151" height="36" viewBox="0 0 151 36" fill="none" xmlns="http://www.w3.org/2000/svg">
<g clip-path="url(#clip0_52_3104)">
<path d="M87.7241 19.1575C87.7241 15.6023 86.2037 12.4612 81.0616 12.4612C78.4234 12.4612 76.3277 13.2138 75.1915 13.8726L76.0243 16.7248C77.0704 16.0679 78.7396 15.5269 80.3152 15.5269C82.9184 15.5232 83.3449 16.9972 83.3449 17.9449V18.173C77.6623 18.1638 74.0701 20.1291 74.0701 24.1315C74.0701 26.5771 75.8938 28.8699 79.0817 28.8699C81.0267 28.8699 82.6702 28.0842 83.6519 26.8439H83.7475C83.7475 26.8439 84.3948 29.5544 87.9741 28.5184C87.7921 27.383 87.7241 26.1869 87.7241 24.7332V19.1575ZM83.4847 22.9115C83.4847 23.1985 83.4608 23.4966 83.3762 23.7524C83.0489 24.8473 81.9202 25.7637 80.5156 25.7637C79.3299 25.7637 78.3995 25.0921 78.3995 23.6843C78.3995 21.5313 80.7748 20.9388 83.4847 20.9535" fill="#2B2B2B"/>
<path d="M0.724121 7.62402C0.724121 7.62402 4.43589 22.8238 5.02605 25.2859C5.72096 28.1639 6.96558 29.2275 10.5579 28.5191L12.878 19.0937C13.4645 16.7586 13.8634 15.084 14.2421 12.7047H14.3064C14.5693 15.108 14.9481 16.7586 15.4279 19.1011C15.4279 19.1011 16.3747 23.3832 16.8656 25.6263C17.3435 27.8695 18.6892 29.2846 22.2136 28.5191L27.7362 7.62402H23.278L21.3826 16.6629C20.8807 19.2814 20.4247 21.3443 20.0699 23.7438H20.0056C19.6857 21.37 19.2794 19.3919 18.7573 16.8267L16.7939 7.62402H12.1426L10.0468 16.5911C9.44928 19.3293 8.89042 21.5246 8.53926 23.8487H8.47861C8.11646 21.6681 7.6256 18.8913 7.10528 16.2562C7.10528 16.2562 5.86066 9.8359 5.42131 7.62402" fill="#2B2B2B"/>
<path d="M40.1604 19.1575C40.1604 15.6023 38.6362 12.4612 33.4942 12.4612C30.8634 12.4612 28.7639 13.2138 27.6278 13.8726L28.4606 16.7248C29.503 16.0679 31.1705 15.5269 32.7515 15.5269C35.3547 15.5232 35.7812 16.9972 35.7812 17.9449V18.173C30.0987 18.1638 26.5027 20.1291 26.5027 24.1315C26.5027 26.5771 28.3338 28.8699 31.5069 28.8699C33.4703 28.8699 35.0992 28.0842 36.0809 26.8439H36.1801C36.1801 26.8439 36.8309 29.5544 40.4067 28.5184C40.2229 27.383 40.1604 26.1869 40.1604 24.7332V19.1575ZM35.9173 22.9115C35.9173 23.1985 35.8934 23.4966 35.8125 23.7524C35.4815 24.8473 34.3528 25.7637 32.9446 25.7637C31.7661 25.7637 30.8322 25.0921 30.8322 23.6843C30.8322 21.5313 33.2073 20.9388 35.9173 20.9535" fill="#2B2B2B"/>
<path d="M42.4739 7.62402V28.5117H46.717V24.0824V7.62402H42.4739Z" fill="#2B2B2B"/>
<path d="M100.747 7.62402V23.0354C100.747 25.1626 101.146 26.6458 102.004 27.5548C102.758 28.3516 103.992 28.8705 105.46 28.8705C106.722 28.8705 107.955 28.6276 108.538 28.416L108.487 25.0982C108.051 25.1994 107.553 25.2859 106.869 25.2859C105.42 25.2859 104.942 24.3677 104.942 22.4576V16.558H108.637V12.5667H104.942V7.62402" fill="#2B2B2B"/>
<path d="M89.7798 12.8238V28.5185H94.1663V20.4807C94.1663 20.0482 94.1938 19.6747 94.2619 19.3287C94.5891 17.6339 95.8741 16.5611 97.7254 16.5611C98.242 16.5611 98.5931 16.6182 98.983 16.6789V12.5643C98.6556 12.5054 98.4332 12.4741 98.0306 12.4741C96.3889 12.4741 94.5284 13.5175 93.7434 15.7901H93.635V12.8238" fill="#2B2B2B"/>
<path d="M49.1809 12.8238V28.5185H53.4552V19.3066C53.4552 18.8742 53.503 18.4326 53.6556 18.0332C54.0031 17.1003 54.8653 16.0201 56.2496 16.0201C57.9704 16.0201 58.783 17.4738 58.783 19.5716V28.5185H63.0464V19.1962C63.0464 18.7896 63.1034 18.2909 63.2228 17.9302C63.5648 16.8721 64.4987 16.0201 65.7893 16.0201C67.5284 16.0201 68.3705 17.4426 68.3705 19.9157V28.5185H72.63V19.2643C72.63 14.4026 70.1592 12.4741 67.3537 12.4741C66.1202 12.4741 65.1385 12.7777 64.256 13.3224C63.5096 13.7806 62.8552 14.4265 62.2686 15.2712H62.2043C61.5296 13.5819 59.9449 12.4741 57.8748 12.4741C55.2201 12.4741 54.0141 13.8156 53.3045 14.9491H53.2401V12.8238" fill="#2B2B2B"/>
<path d="M131.594 12.1193C132.432 12.1193 133.138 11.6813 133.23 11.1183L134.061 1.69663C134.061 0.763669 132.963 0 131.594 0C130.217 0 129.126 0.763669 129.126 1.69663L129.965 11.1183C130.053 11.6813 130.755 12.1193 131.594 12.1193Z" fill="#2B2B2B"/>
<path d="M126.495 15.0674C126.911 14.3313 126.887 13.5143 126.438 13.1499L118.68 7.71961C117.873 7.24853 116.665 7.80978 115.974 8.99853C115.284 10.1854 115.424 11.5177 116.215 11.9796L124.804 15.9654C125.353 16.1715 126.072 15.7887 126.495 15.06" fill="#2B2B2B"/>
<path d="M136.691 15.0597C137.13 15.7884 137.849 16.1711 138.384 15.9761L146.973 11.9793C147.771 11.5082 147.891 10.1888 147.216 9.00187C146.527 7.81313 145.311 7.25557 144.506 7.71745L136.746 13.1422C136.316 13.5121 136.285 14.3328 136.7 15.067" fill="#2B2B2B"/>
<path d="M131.594 23.8879C132.432 23.8879 133.138 24.3259 133.23 24.889L134.061 34.3106C134.061 35.2436 132.963 35.9999 131.594 35.9999C130.217 35.9999 129.126 35.2436 129.126 34.3106L129.965 24.889C130.053 24.3259 130.755 23.8879 131.594 23.8879Z" fill="#2B2B2B"/>
<path d="M136.691 20.9483C137.13 20.2178 137.849 19.8276 138.384 20.0393L146.973 24.0287C147.771 24.4906 147.891 25.821 147.216 27.0098C146.527 28.1893 145.311 28.7506 144.506 28.2887L136.746 22.8565C136.316 22.4904 136.285 21.6733 136.7 20.9483" fill="#2B2B2B"/>
<path d="M126.495 20.9402C126.911 21.6744 126.887 22.4896 126.438 22.8577L118.68 28.2806C117.873 28.7517 116.665 28.1886 115.974 27.0091C115.284 25.8222 115.424 24.4899 116.215 24.028L124.804 20.0385C125.353 19.8288 126.072 20.2152 126.495 20.9402Z" fill="#2B2B2B"/>
<path d="M149.487 27.4619H149.594C149.739 27.4619 149.798 27.5079 149.814 27.6238C149.845 27.7526 149.862 27.8391 149.893 27.8759H150.169C150.145 27.8483 150.114 27.7784 150.097 27.6165C150.066 27.4766 149.994 27.3975 149.893 27.3699V27.3441C150.033 27.3128 150.114 27.219 150.114 27.1031C150.114 26.9982 150.066 26.9227 150.018 26.8749C149.926 26.8307 149.838 26.7958 149.643 26.7958C149.47 26.7958 149.343 26.8105 149.242 26.8344V27.8759H149.487V27.4619ZM149.494 26.9871L149.619 26.9706C149.766 26.9706 149.845 27.0387 149.845 27.1344C149.845 27.2411 149.739 27.2908 149.603 27.2908H149.494V26.9871ZM149.651 26.2805C149.048 26.2805 148.57 26.7516 148.57 27.3294C148.57 27.9219 149.048 28.393 149.651 28.393C150.261 28.393 150.724 27.9219 150.724 27.3294C150.724 26.7516 150.261 26.2805 149.651 26.2805ZM149.651 26.4921C150.114 26.4921 150.458 26.8675 150.458 27.3294C150.458 27.795 150.114 28.1814 149.651 28.174C149.187 28.174 148.836 27.795 148.836 27.3294C148.836 26.8675 149.187 26.4921 149.643 26.4921" fill="#2B2B2B"/>
</g>
<defs>
<clipPath id="clip0_52_3104">
<rect width="150" height="36" fill="white" transform="translate(0.724121)"/>
</clipPath>
</defs>
</svg>
