<svg width="180" height="34" viewBox="0 0 180 34" fill="none" xmlns="http://www.w3.org/2000/svg">
<g clip-path="url(#clip0_52_3088)">
<path d="M70.8205 6.55509H75.7609V8.2839C76.2621 7.8517 77.9805 6.19492 81.2025 6.19492C84.9257 6.19492 87.8613 8.9322 87.8613 13.3263V24.6356H82.6345V14.6949C82.6345 12.2458 81.4889 10.8051 79.3409 10.8051C77.2645 10.8051 76.0473 12.1737 76.0473 14.6949V24.5636H70.8205V6.55509ZM120.583 15.5593C120.583 10.3729 124.735 6.12288 130.105 6.12288C135.547 6.12288 139.628 10.3729 139.628 15.5593C139.628 20.7458 135.475 24.9958 130.105 24.9958C124.735 24.9958 120.583 20.7458 120.583 15.5593ZM125.738 15.5593C125.738 18.0085 127.599 20.0975 130.177 20.0975C132.755 20.0975 134.616 18.0805 134.616 15.5593C134.616 13.0381 132.755 11.0212 130.177 11.0212C127.599 11.0212 125.738 13.1102 125.738 15.5593ZM48.8393 15.5593C48.8393 10.3729 52.9921 6.12288 58.3621 6.12288C63.8037 6.12288 67.8849 10.3729 67.8849 15.5593C67.8849 20.7458 63.7321 24.9958 58.3621 24.9958C52.9921 24.9958 48.8393 20.7458 48.8393 15.5593ZM53.9945 15.5593C53.9945 18.0805 55.8561 20.0975 58.4337 20.0975C61.0113 20.0975 62.8729 18.0805 62.8729 15.5593C62.8729 13.0381 61.0113 11.0212 58.4337 11.0212C55.8561 11.0212 53.9945 13.1102 53.9945 15.5593ZM165.046 4.61017H170.345V0H165.046V4.61017ZM165.046 24.5636H170.345V6.55509H165.046V24.5636ZM174.426 24.5636H179.724V0H174.426V24.5636ZM147.791 24.5636H142.779V0H147.862V7.99576C148.149 7.77966 149.795 6.12288 153.375 6.12288C158.101 6.12288 162.039 10.1568 162.039 15.5593C162.039 20.8898 157.886 24.9958 153.375 24.9958C149.939 24.9958 148.292 23.4831 147.934 23.1949L147.791 24.5636ZM156.597 15.5593C156.597 13.0381 154.664 11.0932 152.158 11.0932C149.652 11.0932 147.647 13.0381 147.647 15.6314C147.647 18.1525 149.581 20.0975 152.158 20.0975C154.664 20.0254 156.597 18.0805 156.597 15.5593ZM17.9797 24.5636H24.1373L29.6505 17.4322L33.0873 20.9619L25.2113 30.8305H31.3689L36.3809 24.2754L45.8321 34H53.2785L39.6745 20.1695L50.4145 6.55509H44.2569L36.3093 16.7839L32.8725 13.3263L41.7509 2.16102H35.5933L29.5789 9.94068L26.2853 6.55509H18.9821L26.3569 14.0466L17.9797 24.5636ZM0.724121 0V24.5636H16.8341V19.9534H6.16572V14.1186H16.2613V9.65254H6.16572V4.61017H16.7625V0H0.724121ZM92.0857 0V24.5636H97.2409V6.05085H97.4557L101.895 24.5636H107.695L112.205 6.05085H112.42V24.5636H117.575V0H109.198L105.045 17.9364H104.831L100.678 0H92.0857Z" fill="#2B2B2B"/>
</g>
<defs>
<clipPath id="clip0_52_3088">
<rect width="179" height="34" fill="white" transform="translate(0.724121)"/>
</clipPath>
</defs>
</svg>
