<svg width="150" height="44" viewBox="0 0 150 44" fill="none" xmlns="http://www.w3.org/2000/svg">
<path d="M71.1978 11.1309H77.9151V32.8672H72.9374V18.2502L66.5696 32.8672L59.8677 18.2318V32.8672H55.2231V11.1309H61.8623L66.6487 22.3814L71.1978 11.1309Z" fill="#2B2B2B"/>
<path d="M80.3904 11.1309V32.8672H92.8992V29.1822H85.2396V23.6523H92.5825V19.9325H85.2396V14.9455H92.8992V11.1309H80.3904Z" fill="#2B2B2B"/>
<path d="M111.556 22.003C111.556 30.0941 119.978 36.5688 128.852 32.2382V27.5813C122.024 32.3775 116.08 27.5703 116.177 22.1888C116.244 18.6122 118.641 15.2109 123.278 14.9456C125.558 14.8159 127.103 15.3842 128.852 17.0635V12.2209C122.44 8.411 111.556 12.6042 111.556 22.003Z" fill="#2B2B2B"/>
<path d="M130.898 32.8671H135.509V11.3398H130.898V32.8671Z" fill="#2B2B2B"/>
<path d="M141.295 21.2112L148.262 11.3875H142.877L135.975 21.1928L143.988 32.8673H149.276L141.295 21.2112Z" fill="#2B2B2B"/>
<path d="M95.0547 11.1306V32.867H99.9209V21.1892L107.965 32.867H113.152L106.784 23.74C109.735 22.621 110.693 20.1399 110.693 17.66C110.693 15.1821 108.618 11.1306 103.592 11.1306H95.0547ZM99.9209 14.7477H102.045C105.636 14.7477 105.828 17.1016 105.828 17.9805C105.828 19.6599 104.407 21.0899 102.572 21.0899H99.9209V14.7477Z" fill="#2B2B2B"/>
<path d="M11.5637 11.1313C11.5637 5.12808 16.4178 0.262207 22.4043 0.262207C28.3927 0.262207 33.2448 5.12808 33.2448 11.1313H11.5637ZM11.5637 32.8687C11.5637 26.8664 16.4178 21.9995 22.4043 21.9995C16.4178 21.9995 11.5637 17.1346 11.5637 11.1313C5.57723 11.1313 0.724121 15.9972 0.724121 21.9995C0.724121 28.0037 5.57723 32.8687 11.5637 32.8687ZM11.5637 32.8687C11.5637 38.8729 16.4178 43.7378 22.4043 43.7378C28.3927 43.7378 33.2448 38.8729 33.2448 32.8687H11.5637ZM22.4043 21.9995C28.3927 21.9995 33.2448 26.8664 33.2448 32.8687C39.2323 32.8687 44.0864 28.0037 44.0864 21.9995C44.0864 15.9972 39.2323 11.1313 33.2448 11.1313C33.2448 17.1346 28.3927 21.9995 22.4043 21.9995Z" fill="#2B2B2B"/>
</svg>
