<svg width="65" height="72" viewBox="0 0 65 72" fill="none" xmlns="http://www.w3.org/2000/svg">
<g clip-path="url(#clip0_52_3129)">
<path fill-rule="evenodd" clip-rule="evenodd" d="M9.50616 12.6121C9.04719 12.8655 8.02727 13.1188 6.59939 13.1188C2.5707 13.1188 0.275879 10.3822 0.275879 6.88544C0.275879 2.72984 3.23365 0.5 6.85437 0.5C8.28225 0.5 8.9962 0.75339 9.50616 1.00678L9.04719 3.54069C8.48624 3.28729 7.92528 3.08458 6.95636 3.08458C5.22249 3.08458 3.38664 4.09814 3.38664 6.83476C3.38664 9.26731 4.86552 10.5849 7.00735 10.5849C7.82329 10.5849 8.43524 10.4329 9.09819 10.1288L9.50616 12.6121ZM26.4368 7.29086C26.4368 6.63205 26.1309 5.46645 24.856 5.46645C23.734 5.46645 23.2241 6.42934 23.1731 7.29086H26.4368ZM23.1731 9.21663C23.2751 10.3822 24.244 10.9904 25.7229 10.9904C26.5898 10.9904 27.6607 10.737 28.3237 10.3315L28.7317 12.46C27.7117 12.9668 26.5388 13.1695 25.3149 13.1695C22.0512 13.1695 20.3173 11.2438 20.3173 8.25375C20.3173 5.3651 22.2042 3.54069 25.0089 3.54069C27.9157 3.54069 29.1906 5.66916 29.1906 8.30443C29.1906 8.55782 29.1396 9.01392 29.1396 9.26731L23.1731 9.21663ZM32.3524 12.7641L29.3436 3.89543H32.3524L33.9842 10.1795H34.0352L35.6671 3.89543H38.6759L35.6671 12.7641H32.3524ZM39.4408 6.83476C39.4408 5.51713 39.3898 4.6556 39.3388 3.89543H41.8886L41.9906 5.56781H42.0416C42.5006 4.25018 43.3675 3.7434 44.2344 3.69272C44.6424 3.69272 44.8974 3.69272 45.1524 3.7434V6.32798C44.8974 6.2773 44.3874 6.22662 44.0815 6.2773C43.0105 6.37866 42.3986 7.13883 42.2456 8.00036C42.1946 8.20307 42.1946 8.40578 42.1946 8.60849V12.7641H39.4918L39.4408 6.83476ZM51.9348 8.3551C51.9348 6.88544 51.4249 5.66916 50.15 5.66916C48.8241 5.66916 48.3651 6.93612 48.3651 8.3551C48.3651 9.77409 48.8751 11.041 50.15 11.041C51.4249 11.041 51.9348 9.77409 51.9348 8.3551ZM54.7396 8.3551C54.7396 11.2438 52.9548 13.1695 50.099 13.1695C47.2432 13.1695 45.4584 11.2438 45.4584 8.3551C45.4584 5.46645 47.2432 3.54069 50.099 3.54069C52.9548 3.54069 54.7396 5.41577 54.7396 8.3551ZM55.9635 6.7334C55.9635 5.61849 55.9125 4.6556 55.8615 3.89543H58.4113L58.4623 5.11171H58.5133C58.8703 4.55425 59.7882 3.59136 61.2671 3.59136C63.052 3.59136 64.2249 4.80764 64.2249 7.4429V12.7641H61.5221V7.84832C61.5221 6.7334 61.1141 5.92255 60.1452 5.92255C59.3803 5.92255 58.9213 6.42934 58.7683 6.93612C58.7173 7.13883 58.6663 7.39222 58.6663 7.64561V12.7641H55.9635V6.7334ZM16.1356 3.64204C17.8695 3.64204 19.0424 4.85831 19.0424 7.54425V12.8148H16.3396V7.94968C16.3396 6.78408 15.9317 5.97323 14.9117 5.97323C13.9428 5.97323 13.4838 6.78408 13.4838 7.54425V12.8148H10.7811V1.51356L13.4838 0.601356V4.90899H13.5348C14.0448 4.09814 15.0647 3.64204 16.1356 3.64204Z" fill="#2B2B2B"/>
<path fill-rule="evenodd" clip-rule="evenodd" d="M0.326904 36.2788V15.146L32.3014 25.7377L0.326904 36.2788Z" fill="#2B2B2B"/>
<path fill-rule="evenodd" clip-rule="evenodd" d="M0.37793 36.3294L32.3014 46.8705L64.2759 36.3294V15.146L32.3014 25.7377L0.37793 36.3294Z" fill="#2B2B2B"/>
<path fill-rule="evenodd" clip-rule="evenodd" d="M0.326904 60.9083V39.7249L32.3014 50.3166L0.326904 60.9083Z" fill="#2B2B2B"/>
<path fill-rule="evenodd" clip-rule="evenodd" d="M64.2759 39.7249L32.3014 50.3166L0.37793 60.9083L32.3014 71.5L64.2759 60.9083V39.7249Z" fill="#2B2B2B"/>
</g>
<defs>
<clipPath id="clip0_52_3129">
<rect width="64" height="71" fill="white" transform="translate(0.275879 0.5)"/>
</clipPath>
</defs>
</svg>
