<svg width="71" height="70" viewBox="0 0 71 70" fill="none" xmlns="http://www.w3.org/2000/svg">
<g clip-path="url(#clip0_52_3090)">
<path d="M32.4666 37.625H40.8819V34.8158H39.9578C39.9578 35.8904 39.1718 36.6825 37.9714 36.6825H36.6758V32.4886H38.0727V31.5583H32.4666V32.4886H33.8788L33.8819 36.6825H32.4666V37.625Z" fill="#2B2B2B"/>
<path d="M44.9284 37.631L48.2043 37.6341L50.9828 32.4915L52.3766 32.4946V31.5613H48.1858V32.4915H49.3955L47.3722 36.2341L45.3214 32.4946L46.792 32.4915L46.7889 31.5613H40.71V32.4946H42.1008L44.9284 37.631Z" fill="#2B2B2B"/>
<path d="M15.7126 31.5613H9.63062V32.4946H11.0214L13.849 37.631L17.1249 37.6341L19.9034 32.4915L21.2973 32.4946V31.5613H17.1065V32.4915H18.3161L16.2929 36.2341L14.242 32.4946L15.7126 32.4915V31.5613Z" fill="#2B2B2B"/>
<path d="M22.1108 34.6008C22.1108 36.3876 23.5508 37.8091 26.4367 37.8091C29.3227 37.8091 30.7472 36.3876 30.7472 34.6008C30.7472 32.8385 29.2367 31.4324 26.4183 31.4324C23.606 31.4324 22.1108 32.8385 22.1108 34.6008ZM27.9227 34.6161C27.9043 35.7183 27.4468 36.8666 26.3907 36.8482C25.3622 36.8297 24.9108 35.6938 24.9293 34.564C24.9507 33.3942 25.5095 32.3749 26.4736 32.3903C27.4345 32.4087 27.9442 33.4464 27.9227 34.6161Z" fill="#2B2B2B"/>
<path d="M53.181 34.6008C53.181 36.3876 54.6209 37.8091 57.5069 37.8091C60.3929 37.8091 61.8174 36.3876 61.8174 34.6008C61.8174 32.8385 60.3069 31.4324 57.4916 31.4324C54.6762 31.4324 53.181 32.8385 53.181 34.6008ZM57.5438 32.3903C58.5047 32.4087 59.0144 33.4464 58.9929 34.6161C58.9714 35.7183 58.517 36.8666 57.4609 36.8482C56.4323 36.8297 55.981 35.6938 55.9994 34.564C56.0179 33.3942 56.5797 32.3749 57.5438 32.3903Z" fill="#2B2B2B"/>
<path d="M64.2522 15.3017L60.7307 18.8232C63.7517 23.4807 65.5048 29.0346 65.5048 35C65.5048 51.4469 52.171 64.7807 35.7241 64.7807C19.2772 64.7807 5.94338 51.4469 5.94338 35C5.94338 18.553 19.2772 5.21926 35.7241 5.21926C41.7017 5.21926 47.2679 6.98154 51.9346 10.0149L55.4561 6.49339C49.8561 2.60961 43.0557 0.331543 35.7241 0.331543C16.5785 0.331543 1.05566 15.8544 1.05566 35C1.05566 54.1456 16.5785 69.6684 35.7241 69.6684C54.8697 69.6684 70.3925 54.1456 70.3925 35C70.3925 27.6837 68.1236 20.8956 64.2522 15.3017Z" fill="#2B2B2B"/>
<path d="M53.1627 1.69458V2.66783C55.2658 3.80686 57.243 5.1516 59.0759 6.66212L54.136 11.602C55.9996 13.0634 57.682 14.7459 59.1465 16.6064L64.0803 11.6727C65.5939 13.5086 66.9386 15.4889 68.0776 17.5612H69.0263V1.69458H53.1627Z" fill="#2B2B2B"/>
</g>
<defs>
<clipPath id="clip0_52_3090">
<rect width="70" height="70" fill="white" transform="translate(0.724121)"/>
</clipPath>
</defs>
</svg>
