<svg width="16" height="16" viewBox="0 0 16 16" fill="none" xmlns="http://www.w3.org/2000/svg">
<path d="M15.4962 15.8422V15.8416H15.4999V10.323C15.4999 7.62334 14.9246 5.5437 11.8002 5.5437C10.2983 5.5437 9.29033 6.37631 8.87884 7.16566H8.8354V5.79574H5.87305V15.8416H8.95767V10.8673C8.95767 9.55752 9.20344 8.29106 10.8091 8.29106C12.3911 8.29106 12.4147 9.78574 12.4147 10.9513V15.8422H15.4962Z" fill="#73BDFA"/>
<path d="M0.723633 5.76782H3.85796V15.6186H0.723633V5.76782Z" fill="#73BDFA"/>
<path d="M2.29104 0.842285C1.3023 0.842285 0.5 1.64085 0.5 2.62498C0.5 3.60911 1.3023 4.42437 2.29104 4.42437C3.27979 4.42437 4.08209 3.60911 4.08209 2.62498C4.08147 1.64085 3.27916 0.842285 2.29104 0.842285V0.842285Z" fill="#73BDFA"/>
</svg>
