<svg width="24" height="25" viewBox="0 0 24 25" fill="none" xmlns="http://www.w3.org/2000/svg">
<path d="M18 13.4584H13V18.4584C13 18.7237 12.8946 18.978 12.7071 19.1655C12.5196 19.3531 12.2652 19.4584 12 19.4584C11.7348 19.4584 11.4804 19.3531 11.2929 19.1655C11.1054 18.978 11 18.7237 11 18.4584V13.4584H6C5.73478 13.4584 5.48043 13.3531 5.29289 13.1655C5.10536 12.978 5 12.7237 5 12.4584C5 12.1932 5.10536 11.9389 5.29289 11.7513C5.48043 11.5638 5.73478 11.4584 6 11.4584H11V6.45844C11 6.19322 11.1054 5.93886 11.2929 5.75133C11.4804 5.56379 11.7348 5.45844 12 5.45844C12.2652 5.45844 12.5196 5.56379 12.7071 5.75133C12.8946 5.93886 13 6.19322 13 6.45844V11.4584H18C18.2652 11.4584 18.5196 11.5638 18.7071 11.7513C18.8946 11.9389 19 12.1932 19 12.4584C19 12.7237 18.8946 12.978 18.7071 13.1655C18.5196 13.3531 18.2652 13.4584 18 13.4584Z" fill="#73BDFA"/>
</svg>
