<svg width="42" height="42" viewBox="0 0 42 42" fill="none" xmlns="http://www.w3.org/2000/svg">
<path d="M39.375 14.0175L36.75 6.14245C36.6587 5.87079 36.481 5.63649 36.244 5.47533C36.007 5.31417 35.7237 5.23501 35.4375 5.24995H6.56252C6.27631 5.23501 5.99308 5.31417 5.75608 5.47533C5.51908 5.63649 5.34135 5.87079 5.25002 6.14245L2.62502 14.0175C2.60627 14.1568 2.60627 14.2981 2.62502 14.4375V22.3125C2.62502 22.6606 2.76331 22.9944 3.00945 23.2405C3.25559 23.4867 3.58943 23.625 3.93752 23.625H5.25002V36.75H7.87502V23.625H15.75V36.75H36.75V23.625H38.0625C38.4106 23.625 38.7445 23.4867 38.9906 23.2405C39.2367 22.9944 39.375 22.6606 39.375 22.3125V14.4375C39.3938 14.2981 39.3938 14.1568 39.375 14.0175ZM34.125 34.125H18.375V23.625H34.125V34.125ZM36.75 21H31.5V15.75H28.875V21H22.3125V15.75H19.6875V21H13.125V15.75H10.5V21H5.25002V14.6475L7.50752 7.87495H34.4925L36.75 14.6475V21Z" fill="#73BDFA"/>
</svg>
