<svg width="42" height="42" viewBox="0 0 42 42" fill="none" xmlns="http://www.w3.org/2000/svg">
<path d="M38.0625 36.75H34.125V5.25H35.4375C35.7856 5.25 36.1194 5.11172 36.3656 4.86558C36.6117 4.61944 36.75 4.2856 36.75 3.9375C36.75 3.5894 36.6117 3.25556 36.3656 3.00942C36.1194 2.76328 35.7856 2.625 35.4375 2.625H6.5625C6.2144 2.625 5.88056 2.76328 5.63442 3.00942C5.38828 3.25556 5.25 3.5894 5.25 3.9375C5.25 4.2856 5.38828 4.61944 5.63442 4.86558C5.88056 5.11172 6.2144 5.25 6.5625 5.25H7.875V36.75H3.9375C3.5894 36.75 3.25556 36.8883 3.00942 37.1344C2.76328 37.3806 2.625 37.7144 2.625 38.0625C2.625 38.4106 2.76328 38.7444 3.00942 38.9906C3.25556 39.2367 3.5894 39.375 3.9375 39.375H38.0625C38.4106 39.375 38.7444 39.2367 38.9906 38.9906C39.2367 38.7444 39.375 38.4106 39.375 38.0625C39.375 37.7144 39.2367 37.3806 38.9906 37.1344C38.7444 36.8883 38.4106 36.75 38.0625 36.75ZM10.5 5.25H31.5V36.75H26.25V30.1875C26.25 29.8394 26.1117 29.5056 25.8656 29.2594C25.6194 29.0133 25.2856 28.875 24.9375 28.875H17.0625C16.7144 28.875 16.3806 29.0133 16.1344 29.2594C15.8883 29.5056 15.75 29.8394 15.75 30.1875V36.75H10.5V5.25ZM23.625 36.75H18.375V31.5H23.625V36.75ZM14.4375 10.5C14.4375 10.1519 14.5758 9.81806 14.8219 9.57192C15.0681 9.32578 15.4019 9.1875 15.75 9.1875H18.375C18.7231 9.1875 19.0569 9.32578 19.3031 9.57192C19.5492 9.81806 19.6875 10.1519 19.6875 10.5C19.6875 10.8481 19.5492 11.1819 19.3031 11.4281C19.0569 11.6742 18.7231 11.8125 18.375 11.8125H15.75C15.4019 11.8125 15.0681 11.6742 14.8219 11.4281C14.5758 11.1819 14.4375 10.8481 14.4375 10.5ZM22.3125 10.5C22.3125 10.1519 22.4508 9.81806 22.6969 9.57192C22.9431 9.32578 23.2769 9.1875 23.625 9.1875H26.25C26.5981 9.1875 26.9319 9.32578 27.1781 9.57192C27.4242 9.81806 27.5625 10.1519 27.5625 10.5C27.5625 10.8481 27.4242 11.1819 27.1781 11.4281C26.9319 11.6742 26.5981 11.8125 26.25 11.8125H23.625C23.2769 11.8125 22.9431 11.6742 22.6969 11.4281C22.4508 11.1819 22.3125 10.8481 22.3125 10.5ZM14.4375 17.0625C14.4375 16.7144 14.5758 16.3806 14.8219 16.1344C15.0681 15.8883 15.4019 15.75 15.75 15.75H18.375C18.7231 15.75 19.0569 15.8883 19.3031 16.1344C19.5492 16.3806 19.6875 16.7144 19.6875 17.0625C19.6875 17.4106 19.5492 17.7444 19.3031 17.9906C19.0569 18.2367 18.7231 18.375 18.375 18.375H15.75C15.4019 18.375 15.0681 18.2367 14.8219 17.9906C14.5758 17.7444 14.4375 17.4106 14.4375 17.0625ZM22.3125 17.0625C22.3125 16.7144 22.4508 16.3806 22.6969 16.1344C22.9431 15.8883 23.2769 15.75 23.625 15.75H26.25C26.5981 15.75 26.9319 15.8883 27.1781 16.1344C27.4242 16.3806 27.5625 16.7144 27.5625 17.0625C27.5625 17.4106 27.4242 17.7444 27.1781 17.9906C26.9319 18.2367 26.5981 18.375 26.25 18.375H23.625C23.2769 18.375 22.9431 18.2367 22.6969 17.9906C22.4508 17.7444 22.3125 17.4106 22.3125 17.0625ZM14.4375 23.625C14.4375 23.2769 14.5758 22.9431 14.8219 22.6969C15.0681 22.4508 15.4019 22.3125 15.75 22.3125H18.375C18.7231 22.3125 19.0569 22.4508 19.3031 22.6969C19.5492 22.9431 19.6875 23.2769 19.6875 23.625C19.6875 23.9731 19.5492 24.3069 19.3031 24.5531C19.0569 24.7992 18.7231 24.9375 18.375 24.9375H15.75C15.4019 24.9375 15.0681 24.7992 14.8219 24.5531C14.5758 24.3069 14.4375 23.9731 14.4375 23.625ZM22.3125 23.625C22.3125 23.2769 22.4508 22.9431 22.6969 22.6969C22.9431 22.4508 23.2769 22.3125 23.625 22.3125H26.25C26.5981 22.3125 26.9319 22.4508 27.1781 22.6969C27.4242 22.9431 27.5625 23.2769 27.5625 23.625C27.5625 23.9731 27.4242 24.3069 27.1781 24.5531C26.9319 24.7992 26.5981 24.9375 26.25 24.9375H23.625C23.2769 24.9375 22.9431 24.7992 22.6969 24.5531C22.4508 24.3069 22.3125 23.9731 22.3125 23.625Z" fill="#73BDFA"/>
</svg>
