<svg width="42" height="42" viewBox="0 0 42 42" fill="none" xmlns="http://www.w3.org/2000/svg">
<path d="M38.5 38.5H3.5" stroke="#73BDFA" stroke-width="1.5" stroke-linecap="round"/>
<path d="M29.75 38.5V10.5C29.75 7.1995 29.75 5.551 28.7245 4.5255C27.699 3.5 26.0505 3.5 22.75 3.5H19.25C15.9495 3.5 14.301 3.5 13.2755 4.5255C12.25 5.551 12.25 7.1995 12.25 10.5V38.5M36.75 38.5V20.125C36.75 17.6663 36.75 16.4377 36.1603 15.5557C35.9048 15.1734 35.5766 14.8452 35.1943 14.5897C34.3123 14 33.082 14 30.625 14M5.25 38.5V20.125C5.25 17.6663 5.25 16.4377 5.83975 15.5557C6.09517 15.1734 6.42342 14.8452 6.80575 14.5897C7.68775 14 8.918 14 11.375 14" stroke="#73BDFA" stroke-width="3"/>
<path d="M21 38.5V33.25M17.5 8.75H24.5M17.5 14H24.5M17.5 19.25H24.5M17.5 24.5H24.5" stroke="#73BDFA" stroke-width="1.5" stroke-linecap="round"/>
</svg>
