<svg width="42" height="42" viewBox="0 0 42 42" fill="none" xmlns="http://www.w3.org/2000/svg">
<g clip-path="url(#clip0_81_6274)">
<path d="M36.709 35.2119C38.0488 35.8682 39.1562 36.791 40.0312 37.9805C40.9062 39.17 41.46 40.5098 41.6924 42H39.4365C39.2861 41.2207 39.0059 40.4961 38.5957 39.8262C38.1855 39.1563 37.6865 38.5821 37.0986 38.1035C36.5107 37.625 35.8477 37.2422 35.1094 36.9551C34.3711 36.668 33.6055 36.5313 32.8125 36.545C32.0059 36.545 31.2402 36.6817 30.5156 36.9551C29.791 37.2285 29.1279 37.6045 28.5264 38.083C27.9248 38.5616 27.4258 39.1426 27.0293 39.8262C26.6328 40.5098 26.3525 41.2344 26.1885 42H23.9326C24.1514 40.5235 24.6982 39.1905 25.5732 38.001C26.4482 36.8116 27.5625 35.8819 28.916 35.2119C28.1367 34.5967 27.5352 33.8516 27.1113 32.9766C26.6875 32.1016 26.4688 31.1719 26.4551 30.1875C26.4551 29.5723 26.5371 28.9776 26.7012 28.4034C26.8652 27.8291 27.1113 27.2891 27.4395 26.7832C27.7676 26.2774 28.1572 25.8262 28.6084 25.4297C29.0596 25.0332 29.5654 24.6983 30.126 24.4248C29.7568 23.8916 29.333 23.42 28.8545 23.0098C28.376 22.5996 27.8564 22.2373 27.2959 21.9229C26.7354 21.6084 26.1475 21.3828 25.5322 21.2461C24.917 21.1094 24.2812 21.0274 23.625 21C22.5312 21 21.4854 21.2119 20.4873 21.6358C19.4893 22.0596 18.6211 22.6817 17.8828 23.502C18.2109 24.3907 18.375 25.3067 18.375 26.25C18.375 27.5078 18.0947 28.6905 17.5342 29.7979C16.9736 30.9053 16.1875 31.835 15.1758 32.5869C16.0645 33.0381 16.8643 33.5918 17.5752 34.2481C18.2861 34.9043 18.9014 35.6426 19.4209 36.4629C19.9404 37.2832 20.3301 38.1582 20.5898 39.0879C20.8496 40.0176 20.9863 40.9883 21 42H18.375C18.375 40.92 18.1699 39.9014 17.7598 38.9444C17.3496 37.9873 16.7891 37.1534 16.0781 36.4424C15.3672 35.7315 14.5264 35.1641 13.5557 34.7403C12.585 34.3164 11.5664 34.1114 10.5 34.125C9.40625 34.125 8.3877 34.3301 7.44434 34.7403C6.50098 35.1504 5.66699 35.711 4.94238 36.4219C4.21777 37.1328 3.65039 37.9737 3.24023 38.9444C2.83008 39.9151 2.625 40.9336 2.625 42H0C0 41.002 0.136719 40.0381 0.410156 39.1084C0.683594 38.1787 1.07324 37.3037 1.5791 36.4834C2.08496 35.6631 2.69336 34.9248 3.4043 34.2686C4.11523 33.6123 4.92188 33.0518 5.82422 32.5869C4.8125 31.835 4.02637 30.9053 3.46582 29.7979C2.90527 28.6905 2.625 27.5078 2.625 26.25C2.625 25.17 2.83008 24.1514 3.24023 23.1944C3.65039 22.2373 4.21094 21.4034 4.92188 20.6924C5.63281 19.9815 6.4668 19.4141 7.42383 18.9903C8.38086 18.5664 9.40625 18.3614 10.5 18.375C11.6621 18.375 12.7627 18.6211 13.8018 19.1133C14.8408 19.6055 15.7432 20.2891 16.5088 21.1641C16.8643 20.8223 17.2471 20.5147 17.6572 20.2412C18.0674 19.9678 18.498 19.708 18.9492 19.4619C17.9375 18.71 17.1514 17.7803 16.5908 16.6729C16.0303 15.5655 15.75 14.3828 15.75 13.125C15.75 12.045 15.9551 11.0264 16.3652 10.0694C16.7754 9.11234 17.3359 8.27835 18.0469 7.56741C18.7578 6.85648 19.5918 6.28909 20.5488 5.86526C21.5059 5.44144 22.5312 5.23636 23.625 5.25003C24.7051 5.25003 25.7236 5.45511 26.6807 5.86526C27.6377 6.27542 28.4717 6.83597 29.1826 7.54691C29.8936 8.25784 30.4609 9.09866 30.8848 10.0694C31.3086 11.0401 31.5137 12.0586 31.5 13.125C31.5 14.3828 31.2197 15.5655 30.6592 16.6729C30.0986 17.7803 29.3125 18.71 28.3008 19.4619C29.2578 19.9678 30.1191 20.583 30.8848 21.3076C31.6504 22.0323 32.2998 22.8731 32.833 23.8301C33.708 23.8301 34.5283 23.9942 35.2939 24.3223C36.0596 24.6504 36.7363 25.1084 37.3242 25.6963C37.9121 26.2842 38.3633 26.9541 38.6777 27.7061C38.9922 28.458 39.1562 29.2852 39.1699 30.1875C39.1699 31.1719 38.958 32.1016 38.5342 32.9766C38.1104 33.8516 37.502 34.5967 36.709 35.2119ZM10.5 31.5C11.2246 31.5 11.9014 31.3633 12.5303 31.0899C13.1592 30.8164 13.7197 30.4405 14.2119 29.9619C14.7041 29.4834 15.0801 28.9297 15.3398 28.3008C15.5996 27.6719 15.7363 26.9883 15.75 26.25C15.75 25.5254 15.6133 24.8487 15.3398 24.2198C15.0664 23.5909 14.6904 23.0303 14.2119 22.5381C13.7334 22.0459 13.1797 21.67 12.5508 21.4102C11.9219 21.1504 11.2383 21.0137 10.5 21C9.77539 21 9.09863 21.1367 8.46973 21.4102C7.84082 21.6836 7.28027 22.0596 6.78809 22.5381C6.2959 23.0166 5.91992 23.5703 5.66016 24.1992C5.40039 24.8282 5.26367 25.5117 5.25 26.25C5.25 26.9746 5.38672 27.6514 5.66016 28.2803C5.93359 28.9092 6.30957 29.4698 6.78809 29.9619C7.2666 30.4541 7.82031 30.8301 8.44922 31.0899C9.07812 31.3496 9.76172 31.4864 10.5 31.5ZM18.375 13.125C18.375 13.8496 18.5117 14.5264 18.7852 15.1553C19.0586 15.7842 19.4346 16.3448 19.9131 16.8369C20.3916 17.3291 20.9453 17.7051 21.5742 17.9649C22.2031 18.2246 22.8867 18.3614 23.625 18.375C24.3496 18.375 25.0264 18.2383 25.6553 17.9649C26.2842 17.6914 26.8447 17.3155 27.3369 16.8369C27.8291 16.3584 28.2051 15.8047 28.4648 15.1758C28.7246 14.5469 28.8613 13.8633 28.875 13.125C28.875 12.4004 28.7383 11.7237 28.4648 11.0948C28.1914 10.4659 27.8154 9.9053 27.3369 9.41312C26.8584 8.92093 26.3047 8.54495 25.6758 8.28519C25.0469 8.02542 24.3633 7.8887 23.625 7.87503C22.9004 7.87503 22.2236 8.01175 21.5947 8.28519C20.9658 8.55862 20.4053 8.9346 19.9131 9.41312C19.4209 9.89163 19.0449 10.4453 18.7852 11.0742C18.5254 11.7032 18.3887 12.3867 18.375 13.125ZM32.8125 26.045C32.2383 26.045 31.7051 26.1543 31.2129 26.3731C30.7207 26.5918 30.2832 26.8858 29.9004 27.2549C29.5176 27.6241 29.2168 28.0616 28.998 28.5674C28.7793 29.0733 28.6699 29.6133 28.6699 30.1875C28.6699 30.7617 28.7793 31.295 28.998 31.7871C29.2168 32.2793 29.5107 32.7168 29.8799 33.0996C30.249 33.4825 30.6865 33.7832 31.1924 34.002C31.6982 34.2207 32.2383 34.3301 32.8125 34.3301C33.3867 34.3301 33.9199 34.2207 34.4121 34.002C34.9043 33.7832 35.3418 33.4893 35.7246 33.1201C36.1074 32.751 36.4082 32.3135 36.627 31.8076C36.8457 31.3018 36.9551 30.7617 36.9551 30.1875C36.9551 29.6133 36.8457 29.0801 36.627 28.5879C36.4082 28.0957 36.1143 27.6582 35.7451 27.2754C35.376 26.8926 34.9385 26.5918 34.4326 26.3731C33.9268 26.1543 33.3867 26.045 32.8125 26.045Z" fill="#73BDFA"/>
</g>
<defs>
<clipPath id="clip0_81_6274">
<rect width="42" height="42" fill="white"/>
</clipPath>
</defs>
</svg>
