<svg width="131" height="130" viewBox="0 0 131 130" fill="none" xmlns="http://www.w3.org/2000/svg">
<path d="M65.5163 113.75C58.7779 113.75 52.4404 112.472 46.5037 109.915C40.5707 107.355 35.4086 103.881 31.0175 99.4933C26.6264 95.1058 23.1507 89.9492 20.5904 84.0233C18.0301 78.0975 16.75 71.7618 16.75 65.0163C16.75 58.2707 18.0301 51.9332 20.5904 46.0037C23.1471 40.0707 26.6156 34.9086 30.9958 30.5175C35.3761 26.1264 40.5346 22.6507 46.4713 20.0904C52.4079 17.5301 58.7454 16.25 65.4837 16.25C72.2221 16.25 78.5596 17.5301 84.4962 20.0904C90.4293 22.6471 95.5914 26.1174 99.9825 30.5013C104.374 34.8851 107.849 40.0436 110.41 45.9767C112.97 51.9097 114.25 58.2454 114.25 64.9837C114.25 71.7221 112.972 78.0596 110.415 83.9962C107.858 89.9329 104.384 95.095 99.9933 99.4825C95.6022 103.87 90.4456 107.346 84.5233 109.91C78.6011 112.473 72.2654 113.754 65.5163 113.75ZM65.5 108.333C77.5972 108.333 87.8437 104.135 96.2396 95.7396C104.635 87.3437 108.833 77.0972 108.833 65C108.833 52.9028 104.635 42.6562 96.2396 34.2604C87.8437 25.8646 77.5972 21.6667 65.5 21.6667C53.4028 21.6667 43.1562 25.8646 34.7604 34.2604C26.3646 42.6562 22.1667 52.9028 22.1667 65C22.1667 77.0972 26.3646 87.3437 34.7604 95.7396C43.1562 104.135 53.4028 108.333 65.5 108.333Z" fill="#73BDFA"/>
<path d="M53.8334 80.6013C55.7406 82.9442 58.36 84.6011 61.2942 85.3205C67.9267 87.0384 74.4542 84.0196 75.8746 78.583C77.295 73.1405 72.1617 67.208 65.5321 65.4871C58.9025 63.7663 53.7663 57.8367 55.1867 52.3971C56.6071 46.9576 63.1317 43.9417 69.7642 45.6596C72.6284 46.348 75.2184 47.9726 77.1667 50.303M65.853 85.8017V91.2617M65.853 38.7617V45.1784" stroke="#73BDFA" stroke-width="4" stroke-linecap="square" stroke-linejoin="round"/>
</svg>
