<svg width="131" height="130" viewBox="0 0 131 130" fill="none" xmlns="http://www.w3.org/2000/svg">
<path d="M65.6517 93.3292C66.8506 93.3292 67.8617 92.9175 68.685 92.0942C69.5083 91.2708 69.92 90.2597 69.92 89.0608C69.92 87.8619 69.5047 86.8508 68.6742 86.0275C67.8508 85.2042 66.8397 84.7925 65.6408 84.7925C64.4419 84.7925 63.4308 85.206 62.6075 86.0329C61.7842 86.8599 61.3743 87.871 61.3779 89.0663C61.3779 90.2651 61.7896 91.2763 62.6129 92.0996C63.4435 92.9229 64.4564 93.3346 65.6517 93.3346M62.8512 75.3946H68.0838C68.221 73.0401 68.6633 71.1263 69.4108 69.6529C70.1583 68.1832 71.6949 66.3054 74.0204 64.0196C76.4399 61.6037 78.2382 59.4389 79.4154 57.525C80.5926 55.6111 81.1831 53.3975 81.1867 50.8842C81.1867 46.6158 79.6881 43.2142 76.6908 40.6792C73.69 38.1442 70.1403 36.8767 66.0417 36.8767C62.1453 36.8767 58.8375 37.9347 56.1183 40.0508C53.3992 42.1706 51.4076 44.6044 50.1437 47.3525L55.1271 49.4162C55.9937 47.4446 57.2342 45.7022 58.8483 44.1892C60.4625 42.6725 62.7917 41.9142 65.8358 41.9142C69.3458 41.9142 71.9097 42.8783 73.5275 44.8067C75.1489 46.735 75.9596 48.8547 75.9596 51.1658C75.9596 53.0436 75.4522 54.7192 74.4375 56.1925C73.4264 57.6694 72.1083 59.1536 70.4833 60.645C67.3417 63.5411 65.2833 65.9967 64.3083 68.0117C63.3333 70.0267 62.8476 72.4876 62.8512 75.3946ZM65.5163 113.75C58.7779 113.75 52.4404 112.472 46.5037 109.915C40.5707 107.355 35.4086 103.881 31.0175 99.4933C26.6264 95.1058 23.1507 89.9492 20.5904 84.0233C18.0301 78.0975 16.75 71.7618 16.75 65.0163C16.75 58.2707 18.0301 51.9332 20.5904 46.0037C23.1471 40.0707 26.6156 34.9086 30.9958 30.5175C35.3761 26.1264 40.5346 22.6507 46.4713 20.0904C52.4079 17.5301 58.7454 16.25 65.4837 16.25C72.2221 16.25 78.5596 17.5301 84.4962 20.0904C90.4293 22.6471 95.5914 26.1174 99.9825 30.5013C104.374 34.8851 107.849 40.0436 110.41 45.9767C112.97 51.9097 114.25 58.2454 114.25 64.9837C114.25 71.7221 112.972 78.0596 110.415 83.9962C107.858 89.9329 104.384 95.095 99.9933 99.4825C95.6022 103.87 90.4456 107.346 84.5233 109.91C78.6011 112.473 72.2654 113.754 65.5163 113.75ZM65.5 108.333C77.5972 108.333 87.8437 104.135 96.2396 95.7396C104.635 87.3437 108.833 77.0972 108.833 65C108.833 52.9028 104.635 42.6562 96.2396 34.2604C87.8437 25.8646 77.5972 21.6667 65.5 21.6667C53.4028 21.6667 43.1562 25.8646 34.7604 34.2604C26.3646 42.6562 22.1667 52.9028 22.1667 65C22.1667 77.0972 26.3646 87.3437 34.7604 95.7396C43.1562 104.135 53.4028 108.333 65.5 108.333Z" fill="#73BDFA"/>
</svg>
