<svg width="24" height="25" viewBox="0 0 24 25" fill="none" xmlns="http://www.w3.org/2000/svg">
<path d="M11.5245 3.48745C11.6741 3.02679 12.3259 3.0268 12.4755 3.48745L14.3574 9.27925C14.4243 9.48526 14.6163 9.62474 14.8329 9.62474H20.9228C21.4071 9.62474 21.6085 10.2445 21.2167 10.5292L16.2899 14.1088C16.1146 14.2361 16.0413 14.4618 16.1082 14.6678L17.9901 20.4596C18.1398 20.9202 17.6125 21.3033 17.2207 21.0186L12.2939 17.4391C12.1186 17.3118 11.8814 17.3118 11.7061 17.4391L6.77931 21.0186C6.38745 21.3033 5.86021 20.9202 6.00989 20.4596L7.89176 14.6678C7.9587 14.4618 7.88537 14.2361 7.71012 14.1088L2.78333 10.5292C2.39147 10.2445 2.59286 9.62474 3.07722 9.62474H9.16708C9.38369 9.62474 9.57567 9.48526 9.6426 9.27925L11.5245 3.48745Z" fill="#FFCB13"/>
</svg>
